<?xml version="1.0" standalone="no"?>
<!DOCTYPE svg PUBLIC "-//W3C//DTD SVG 20010904//EN"
 "http://www.w3.org/TR/2001/REC-SVG-20010904/DTD/svg10.dtd">
<svg version="1.0" xmlns="http://www.w3.org/2000/svg"
 width="450.000000pt" height="450.000000pt" viewBox="0 0 450.000000 450.000000"
 preserveAspectRatio="xMidYMid meet">

<g transform="translate(0.000000,450.000000) scale(0.100000,-0.100000)"
fill="#000000" stroke="none">
<path d="M1705 4364 c-93 -48 -139 -143 -114 -236 12 -49 32 -74 73 -95 24
-12 324 -123 333 -123 9 0 88 229 82 234 -2 1 -64 27 -136 56 -115 46 -133 56
-133 75 0 51 21 51 166 0 112 -39 138 -45 145 -34 5 8 7 18 6 23 -2 5 -68 33
-148 62 -156 57 -220 66 -274 38z"/>
<path d="M975 2758 c-26 -65 -54 -148 -50 -148 2 0 19 25 37 55 18 30 41 58
50 61 22 7 22 12 -1 47 l-18 28 -18 -43z"/>
<path d="M2115 2234 c-214 -112 -367 -166 -559 -199 -22 -4 -35 -10 -29 -13
14 -9 115 -187 164 -287 73 -152 49 -124 -109 126 -70 110 -119 179 -132 182
-11 3 -20 4 -20 2 0 -1 70 -121 156 -266 144 -243 448 -767 573 -986 62 -110
80 -119 202 -110 205 16 482 129 747 304 69 46 82 59 82 81 0 15 14 56 30 90
17 35 28 68 24 73 -3 5 -22 9 -43 9 -50 0 -113 -41 -186 -123 -36 -40 -64 -63
-71 -59 -19 11 -136 159 -176 224 l-17 27 100 76 c54 42 99 78 99 80 0 3 -44
-25 -97 -60 -99 -67 -132 -81 -157 -72 -7 3 -37 47 -66 97 -29 50 -59 94 -68
97 -8 4 -66 -19 -129 -50 -121 -61 -151 -67 -175 -39 -35 40 -118 192 -118
214 0 35 21 50 134 100 55 24 104 51 109 60 8 12 -3 39 -46 115 -61 106 -66
123 -41 147 8 9 11 16 5 16 -6 0 -11 10 -11 23 0 12 -16 53 -36 90 -29 55 -33
71 -24 82 7 8 11 14 9 14 -2 -1 -58 -30 -124 -65z m-57 -1129 c-3 -3 -9 2 -12
12 -6 14 -5 15 5 6 7 -7 10 -15 7 -18z m54 -87 c19 -33 149 -258 186 -322 3
-5 0 -6 -5 -3 -8 5 -146 242 -210 360 -2 4 -2 7 1 7 2 0 15 -19 28 -42z"/>
</g>
</svg>
